<svg
xmlns="http://www.w3.org/2000/svg"
viewBox="0 0 800 800"
className="aspect-square size-full flex-1"
>
<path
  d="M539.54,400.13c-7.86-13.89-15.72-27.83-23.58-41.83-1.56-2.77-4.49-4.5-7.67-4.5h0c-3.1,0-5.98,1.64-7.56,4.3l-43.52,73.15c-.73,1.23-2.53,1.21-3.24-.04-7.12-12.51-14.15-24.95-21.09-37.31-7.03-12.5-14.14-25.32-21.34-38-.83-1.47-2.39-2.37-4.08-2.37h-61.52c-4.97,0-8.99,4.03-8.99,8.99v51.42c0,1.92-2.55,2.6-3.5.93-2.85-5.01-5.7-10.03-8.52-15.01-8.2-14.49-16.4-29.04-24.6-43.65-.93-1.65-2.67-2.67-4.56-2.67h0c-1.84,0-3.55.97-4.5,2.56l-50.61,85.08c-1.32,2.22.28,5.02,2.86,5.02h37.49c.68,0,1.31-.37,1.64-.97l.74-1.34c.69-1.25-.21-2.78-1.64-2.78h-31.9c-1.45,0-2.35-1.58-1.61-2.83l41.53-69.53c.74-1.24,2.54-1.2,3.24.05,7,12.51,14.01,24.93,21.01,37.28,6.04,10.66,17.15,30.14,21.3,37.41,1,1.76,2.87,2.84,4.89,2.84h67.51c1.03,0,1.87-.84,1.87-1.87s-.84-1.87-1.87-1.87h-55.47c-1.03,0-1.87-.84-1.87-1.87v-37.04c0-1.03.84-1.87,1.87-1.87h24.82c1.03,0,1.87-.84,1.87-1.87s-.84-1.87-1.87-1.87h-24.82c-1.03,0-1.87-.84-1.87-1.87v-37.04c0-1.03.84-1.87,1.87-1.87h44.4c.67,0,1.3.36,1.63.95,7.97,14.02,15.87,27.99,23.68,41.9,7.82,13.92,15.72,27.9,23.7,41.94,1.54,2.71,4.43,4.39,7.54,4.39h0c3.05,0,5.87-1.6,7.44-4.22l43.74-73.23c.74-1.24,2.54-1.2,3.24.05,7,12.51,14.01,24.93,21.01,37.28,6.05,10.68,12.16,21.43,18.3,32.22.71,1.25-.19,2.8-1.62,2.8h-25.7c-1.45,0-2.35,1.58-1.61,2.83l.8,1.34c.34.57.95.91,1.61.91h31.01c6.43,0,10.48-6.94,7.3-12.54-5.99-10.54-14.34-25.23-19.18-33.79Z"
  fill="#current"
/>
</svg>